# xmcd
#
# Track frame offsets:
#	182
#	12482
#	26347
#	41220
#	54625
#	68562
#	81215
#	96627
#	109205
#	123260
#	132725
#	144905
#
# Disc length: 2201
#
# Revision: 1
# Processed by: cddbd v1.5.1PL0 Copyright (c) Steve Scherf et al.
# Submitted via: EasyCDDAExtractor 5.0.2.1
# Normalized: r0:DSETVAR1
#
DISCID=ab08970c
DTITLE=Various Artist - Fifth of Country
DYEAR=1997
DGENRE=Country
TTITLE0=Johnee Lee - Hey Bartender
TTITLE1=Highway 101 - Wiskey, if you were a woman
TTITLE2=Willie Nelson - Bloody Mary morning
TTITLE3=Waylon Jennings - Drinkin' and Dreamin'
TTITLE4=Ray Kennedy - No way Jose
TTITLE5=T. G. Sheppard - Devil in the bottle (There's a)
TTITLE6=Eddie Rabbit - Pour me anouther taquila
TTITLE7=Gary Stewert - She's actin' single (I'm drinkin' doubles)
TTITLE8=Emmylou Harris - Two more bottles of wine
TTITLE9=Gene Watson - Drinkin' my way back home
TTITLE10=Shelly West - Jose Cuervo
TTITLE11=Merle Haggard - I think I'll just stay here and drink
EXTD=
EXTT0=
EXTT1=
EXTT2=
EXTT3=
EXTT4=
EXTT5=
EXTT6=
EXTT7=
EXTT8=
EXTT9=
EXTT10=
EXTT11=
PLAYORDER=
